<svg width="128" height="128" viewBox="0 0 128 128" fill="none" xmlns="http://www.w3.org/2000/svg">
<g clip-path="url(#clip0_14_36)">
<path d="M128 127.451C128 129.964 126.09 132 123.733 132H4.26667C1.90976 132 0 129.964 0 127.451C0 124.937 1.90976 122.901 4.26667 122.901H37.7367V112.665H23.465C22.8199 112.665 22.1833 112.509 21.603 112.209C21.0227 111.909 20.5137 111.472 20.1144 110.932C19.7151 110.392 19.4358 109.762 19.2975 109.09C19.1593 108.419 19.1656 107.722 19.3161 107.053L41.7479 7.48598C41.972 6.49261 42.5031 5.60857 43.2557 4.97622C44.0083 4.34386 44.9386 4 45.8968 4C46.855 4 47.7853 4.34386 48.5379 4.97622C49.2905 5.60857 49.8216 6.49261 50.0457 7.48598L60.4774 53.7908C53.3544 60.6435 48.8681 70.557 48.8681 81.5679C48.861 87.8557 50.3502 94.0427 53.1962 99.5497C53.4153 99.8597 53.6001 100.199 53.7395 100.563C56.4264 105.4 60.0931 109.535 64.4716 112.665H54.0564V122.901H75.644V108.455C65.0615 104.725 57.4015 94.0855 57.4015 81.5673C57.4015 65.9536 69.3146 53.2503 83.9583 53.2503C98.6021 53.2503 110.515 65.953 110.515 81.5673C110.515 94.0849 102.855 104.725 92.2726 108.455V122.901H123.733C124.294 122.901 124.848 123.019 125.366 123.247C125.884 123.476 126.354 123.811 126.75 124.234C127.147 124.656 127.461 125.158 127.675 125.71C127.89 126.262 128 126.853 128 127.451Z" fill="#A4D47C"/>
</g>
<defs>
<clipPath id="clip0_14_36">
<rect width="128" height="128" fill="white"/>
</clipPath>
</defs>
</svg>
