<svg width="135" height="132" viewBox="0 0 135 132" fill="none" xmlns="http://www.w3.org/2000/svg">
<path d="M45.7875 70.675L50.625 73.5167C51.4125 73.5167 51.825 73.1867 51.825 72.545C51.7672 71.9375 51.5753 71.3496 51.2625 70.8217L40.7625 51.5533L17.5313 52.1033C17.3149 52.0855 17.0972 52.115 16.894 52.1897C16.6907 52.2643 16.5071 52.3823 16.3562 52.535C16.2054 52.6877 16.0913 52.8714 16.0221 53.0726C15.9529 53.2738 15.9304 53.4876 15.9563 53.6983C15.9563 53.9367 16.2938 54.2483 16.95 54.67L21.7688 57.5117L16.575 65.2667C15.3839 66.8846 14.6528 68.7824 14.4563 70.7667C14.5265 72.3278 15.0111 73.8442 15.8625 75.1667L31.6688 102.117C31.307 100.527 31.1185 98.9049 31.1063 97.2767C31.1495 94.3795 32.0695 91.5598 33.75 89.1733L45.8063 70.675H45.7875Z" fill="#A4D47C"/>
<path d="M51.8813 55L64.9125 35.2C60.0375 24.3467 54.8625 18.92 49.3875 18.92C46.0875 18.92 43.875 19.8184 42.7313 21.615L30.3938 40.8834L51.8813 55Z" fill="#A4D47C"/>
<path d="M41.25 108.442H66.3937V82.8667H42.1687C40.1281 85.5751 38.2499 88.3971 36.5437 91.3184C35.3444 93.5411 34.7017 96.0104 34.6687 98.5234C34.6687 105.136 36.8437 108.442 41.1937 108.442H41.25Z" fill="#A4D47C"/>
<path d="M93.0563 50.2334L104.306 31.9C104.67 31.2872 104.864 30.592 104.869 29.8834C104.869 29.0584 104.587 28.6367 104.025 28.6367C103.664 28.8249 103.279 28.9666 102.881 29.0584L97.725 31.1667L93.0563 22.165C91.0188 18.1073 86.875 16.0784 80.625 16.0784H51.45C54.0233 16.6988 56.4662 17.7535 58.6687 19.195C61.6562 21.505 64.7062 25.8439 67.8187 32.2117L73.6312 44.1284L69.375 46.145C69.1627 46.2431 68.987 46.4036 68.8727 46.6042C68.7584 46.8047 68.7111 47.0352 68.7375 47.2634C68.7375 47.9417 69.1875 48.345 70.0875 48.4367L93.1312 50.27L93.0563 50.2334Z" fill="#A4D47C"/>
<path d="M104.25 104.628L120.544 75.6616C118.469 78.121 115.755 79.9891 112.687 81.07C109.527 81.9214 106.252 82.2984 102.975 82.1883H84.825V78.5216C84.825 77.0916 84.4687 76.3766 83.7562 76.3766C83.5353 76.3596 83.3138 76.4018 83.1156 76.4988C82.9173 76.5957 82.7499 76.7436 82.6312 76.9266L71.25 96.3783L83.1562 114.272C84.0562 115.61 84.825 116.105 85.4812 115.848C86.1375 115.592 86.475 115.335 86.475 114.822V108.717H96.5437C98.109 108.846 99.6791 108.529 101.064 107.803C102.448 107.077 103.587 105.975 104.344 104.628H104.25Z" fill="#A4D47C"/>
<path d="M97.1625 78.5034H108C111.009 78.3438 113.866 77.1639 116.081 75.1667C119.069 72.8567 120.556 70.4123 120.544 67.8334C120.514 66.5632 120.096 65.3309 119.344 64.295L106.444 45.045L84.2625 57.6584L97.1625 78.5034Z" fill="#A4D47C"/>
</svg>
