<svg width="44" height="44" viewBox="0 0 44 44" fill="none" xmlns="http://www.w3.org/2000/svg">
<g clip-path="url(#clip0_7_4)">
<path d="M32.032 26.367C31.4875 26.0938 28.809 24.7775 28.3103 24.5942C27.8098 24.4127 27.4468 24.3228 27.082 24.8692C26.7208 25.4137 25.6758 26.6402 25.3587 27.0032C25.0415 27.368 24.7225 27.412 24.178 27.1407C23.6335 26.8657 21.8772 26.2918 19.7963 24.4365C18.1775 22.9918 17.083 21.208 16.7658 20.6617C16.4487 20.1172 16.7328 19.822 17.0042 19.5507C17.2498 19.3068 17.5505 18.9145 17.8218 18.5973C18.095 18.2783 18.1848 18.051 18.3682 17.6862C18.5497 17.3232 18.4598 17.006 18.3223 16.7328C18.1848 16.4597 17.0958 13.7775 16.643 12.6867C16.1993 11.6252 15.7502 11.77 15.4165 11.7517C15.0993 11.737 14.7363 11.7333 14.3715 11.7333C14.0085 11.7333 13.4182 11.869 12.9195 12.4153C12.4208 12.9598 11.0128 14.278 11.0128 16.9602C11.0128 19.6405 12.9653 22.231 13.2367 22.5958C13.5098 22.9588 17.0793 28.4625 22.5445 30.822C23.8443 31.383 24.8582 31.7185 25.6502 31.9678C26.9555 32.384 28.1435 32.3253 29.0803 32.1842C30.1272 32.0283 32.3033 30.866 32.758 29.5937C33.2127 28.3213 33.2127 27.2305 33.0752 27.0032C32.9395 26.7758 32.5783 26.6402 32.032 26.367ZM22.0917 39.9392H22.0843C18.8389 39.9394 15.6531 39.0668 12.8608 37.4128L12.199 37.0205L5.34049 38.8208L7.17016 32.1328L6.73933 31.4472C4.92513 28.5583 3.96538 25.2151 3.97099 21.8038C3.97283 11.8122 12.1037 3.68317 22.099 3.68317C26.939 3.68317 31.4893 5.5715 34.9103 8.99617C36.5982 10.6766 37.9361 12.6752 38.8465 14.8761C39.7569 17.0771 40.2218 19.4367 40.2142 21.8185C40.2087 31.8102 32.0797 39.9392 22.0917 39.9392ZM37.5155 6.39467C35.4955 4.36136 33.0921 2.74915 30.4445 1.65147C27.7969 0.553786 24.9578 -0.0075456 22.0917 2.64626e-06C10.0742 2.64626e-06 0.293326 9.78084 0.287826 21.802C0.287826 25.6447 1.29066 29.3957 3.19916 32.7012L0.104492 44L11.6637 40.9677C14.8602 42.7092 18.4423 43.6219 22.0825 43.6223H22.0917C34.1073 43.6223 43.89 33.8415 43.8955 21.8185C43.9044 18.9535 43.3451 16.1152 42.2499 13.4677C41.1548 10.8203 39.5457 8.41623 37.5155 6.39467Z" fill="#82d85a"/>
</g>
<defs>
<clipPath id="clip0_7_4">
<rect width="44" height="44" fill="white"/>
</clipPath>
</defs>
</svg>
